# AST/ASF file generated using VICON BodyLanguage
# -----------------------------------------------
:version 1.10
:name VICON
:units
  mass 1.0
  length 0.45
  angle deg
:documentation
   .ast/.asf automatically generated from VICON data using
   VICON BodyBuilder and BodyLanguage model FoxedUp or BRILLIANT.MOD
:root
   order TX TY TZ RX RY RZ
   axis XYZ
   position 0 0 0  
   orientation 0 0 0 
:bonedata
  begin
     id 1 
     name lhipjoint
     direction 0.63403 -0.759788 0.143974 
     length 2.51904 
     axis 0 0 0  XYZ
  end
  begin
     id 2 
     name lfemur
     direction 0.34202 -0.939693 0  
     length 7.42313  
     axis 0 0 20  XYZ
    dof rx ry rz
    limits (-160.0 20.0)
           (-70.0 70.0)
           (-60.0 70.0)
  end
  begin
     id 3 
     name ltibia
     direction 0.34202 -0.939693 0   
     length 8.10141   
     axis 0 0 20   XYZ
    dof rx
    limits (-10.0 170.0)
  end
  begin
     id 4 
     name lfoot
     direction 0.0927455 -0.254816 0.962532   
     length 2.14078   
     axis -90 7.62852e-016 20   XYZ
    dof rx rz
    limits (-45.0 90.0)
           (-70.0 20.0)
  end
  begin
     id 5 
     name ltoes
     direction 1.53556e-011 -4.21949e-011 1   
     length 1.07182   
     axis -90 7.62852e-016 20   XYZ
    dof rx
    limits (-90.0 20.0)
  end
  begin
     id 6 
     name rhipjoint
     direction -0.659892 -0.738223 0.139888   
     length 2.59263  
     axis 0 0 0  XYZ 
  end
  begin
     id 7 
     name rfemur
     direction -0.34202 -0.939693 0   
     length 7.58575   
     axis 0 0 -20   XYZ
    dof rx ry rz
    limits (-160.0 20.0)
           (-70.0 70.0)
           (-70.0 60.0)
  end
  begin
     id 8 
     name rtibia
     direction -0.34202 -0.939693 0   
     length 8.19358   
     axis 0 0 -20   XYZ
    dof rx
    limits (-10.0 170.0)
 end
 begin
     id 9 
     name rfoot
     direction -0.0856543 -0.235333 0.968133   
     length 2.13415  
     axis -90 -7.62852e-016 -20   XYZ
    dof rx rz
    limits (-45.0 90.0)
           (-20.0 70.0)
  end
  begin
     id 10 
     name rtoes
     direction -1.53551e-011 -4.21811e-011 1   
     length 1.07055   
     axis -90 -7.62852e-016 -20   XYZ
    dof rx
    limits (-90.0 20.0)
  end
  begin
     id 11 
     name lowerback
     direction 0.025219 0.998394 -0.0507326   
     length 1.91844   
     axis 0 0 0   XYZ
    dof rx ry rz
    limits (-20.0 45.0)
           (-30.0 30.0)
           (-30.0 30.0)
  end
  begin
     id 12 
     name upperback
     direction 0.0213103 0.99967 -0.0143101   
     length 1.92246   
     axis 0 0 0   XYZ
    dof rx ry rz
    limits (-20.0 45.0)
           (-30.0 30.0)
           (-30.0 30.0)
  end
  begin
     id 13 
     name thorax
     direction 0.00920974 0.99991 0.00971518   
     length 1.92239   
     axis 0 0 0   XYZ
    dof rx ry rz
    limits (-20.0 45.0)
           (-30.0 30.0)
           (-30.0 30.0)
  end
  begin
     id 14 
     name lowerneck
     direction 0.0598257 0.997249 0.0437612   
     length 3.13679   
     axis 0 0 0   XYZ
    dof rx ry rz
    limits (-20.0 45.0)
           (-30.0 30.0)
           (-30.0 30.0)
  end
  begin
     id 15 
     name upperneck
     direction -0.035342 0.999338 0.00863891   
     length 3.16283   
     axis 0 0 0   XYZ
    dof rx ry rz
    limits (-20.0 45.0)
           (-30.0 30.0)
           (-30.0 30.0)
  end
  begin
     id 16
     name head
     direction 0.37144 0.811566 0.450991  
     length 1.2838  
     axis 0 0 0   XYZ
    dof rx ry rz
    limits (-20.0 45.0)
           (-30.0 30.0)
           (-30.0 30.0)
  end
  begin
     id 17 
     name lclavicle
     direction 0.961094 0.274654 -0.0293862  
     length 3.63466  
     axis 0 0 0   XYZ
    dof ry rz
    limits (-20.0 10.0)
           (0.0 20.0)
  end
  begin
     id 18 
     name lhumerus
     direction 1 -4.48963e-011 1.10303e-027   
     length 5.12842   
     axis 180 -30 -90   XYZ
    dof rx ry rz
    limits (-60.0 90.0)
           (-90.0 90.0)
           (-90.0 90.0)
  end
  begin
     id 19
     name lradius
     direction 1 -4.48968e-011 4.13199e-027   
     length 3.47396   
     axis 180 -30 -90   XYZ
    dof rx
    limits (-10.0 170.0)
  end
  begin
     id 20
     name lwrist
     direction 1 -4.48948e-011 9.12708e-027   
     length 1.73698   
     axis -6.84618e-015 90 90   XYZ
    dof ry
    limits (-180.0 0.0)
 end
  begin
     id 21 
     name lhand
     direction 1 -4.49057e-011 1.82749e-026   
     length 0.728607   
     axis -1.16502e-014 90 90   XYZ
    dof rx rz
    limits (-90.0 90.0)
           (-45.0 45.0)
  end
  begin
     id 22 
     name lfingers
     direction 1 -4.48912e-011 3.64949e-026   
     length 0.587422   
     axis -2.33008e-014 90 90   XYZ
    dof rx
    limits (0.0 90.0)
  end
  begin
     id 23
     name lthumb
     direction 0.707107 -6.34995e-011 0.707107   
     length 0.843424   
     axis -90 45 5.69224e-014   XYZ
    dof rx rz
    limits (-45.0 45.0)
           (-45.0 45.0)
  end
  begin
     id 24 
     name rclavicle
     direction -0.90514 0.421881 -0.0523369   
     length 3.57139  
     axis 0 0 0   XYZ 
    dof ry rz
    limits (-10.0 20.0)
           (-20.0 0.0)
  end
  begin
     id 25 
     name rhumerus
     direction -1 -4.48954e-011 -1.76662e-027  
     length 5.48477   
     axis 180 30 90   XYZ
    dof rx ry rz
    limits (-90.0 60.0)
           (-90.0 90.0)
           (-90.0 90.0)
  end
  begin
     id 26 
     name rradius
     direction -1 -4.48982e-011 1.26841e-027   
     length 3.47856   
     axis 180 30 90   XYZ
    dof rx
    limits (-10.0 170.0)
  end
  begin
     id 27 
     name rwrist
     direction -1 -4.49037e-011 9.13554e-027   
     length 1.73928   
     axis -6.84618e-015 -90 -90   XYZ
    dof ry
    limits (-180.0 0.0)
  end
  begin
     id 28
     name rhand
     direction -1 -4.48871e-011 1.82397e-026   
     length 0.709974   
     axis -1.16502e-014 -90 -90   XYZ
    dof rx rz
    limits (-90.0 90.0)
           (-45.0 45.0)
  end
  begin
     id 29
     name rfingers
     direction -1 -4.48994e-011 3.65258e-026   
     length 0.572399   
     axis -2.33008e-014 -90 -90   XYZ
    dof rx
    limits (0.0 90.0)
  end
  begin
     id 30
     name rthumb
     direction -0.707107 -6.34861e-011 0.707107   
     length 0.821855   
     axis -90 -45 -5.69224e-014   XYZ
    dof rx rz
    limits (-45.0 45.0)
           (-45.0 45.0)
  end
:hierarchy
  begin
    root lhipjoint rhipjoint lowerback
    lhipjoint lfemur
    lfemur ltibia
    ltibia lfoot
    lfoot ltoes
    rhipjoint rfemur
    rfemur rtibia
    rtibia rfoot
    rfoot rtoes
    lowerback upperback
    upperback thorax
    thorax lowerneck lclavicle rclavicle
    lowerneck upperneck
    upperneck head
    lclavicle lhumerus
    lhumerus lradius
    lradius lwrist
    lwrist lhand lthumb
    lhand lfingers
    rclavicle rhumerus
    rhumerus rradius
    rradius rwrist
    rwrist rhand rthumb
    rhand rfingers
  end

#!OML:ASF F:\VICON\USERDATA\INSTALL\Justin1\Justin1.ASF
:FULLY-SPECIFIED
:DEGREES
690
root 0.057449 18.2493 -4.32624 2.98408 4.96332 -3.59032
lowerback 2.47151 -0.0783226 2.35996
upperback -1.53003 0.0801442 3.37677
thorax -2.96366 0.0296474 2.14932
lowerneck -15.0906 -2.86536 -4.4861
upperneck 17.0655 -1.95144 -4.63066
head 7.78291 -1.67475 -1.01124
rclavicle 1.37907e-015 5.56597e-015
rhumerus -10.3041 28.4586 -78.2793
rradius 73.0517
rwrist 26.3704
rhand -21.0302 13.3892
rfingers 7.12502
rthumb 5.34518 -16.5234
lclavicle 1.37907e-015 5.56597e-015
lhumerus 7.66134 -24.7648 79.2007
lradius 91.6964
lwrist -43.0238
lhand -29.9745 24.5234
lfingers 7.12502
lthumb -3.29283 54.4778
rfemur -16.134 6.87463 27.6322
rtibia 32.4383
rfoot -16.6604 -13.3543
rtoes 26.5799
lfemur -14.262 -9.59908 -17.3239
ltibia 29.9836
lfoot -15.328 12.3041
ltoes 1.86597
691
root 0.0540862 18.2484 -4.32662 2.97667 5.01719 -3.66346
lowerback 2.45733 -0.101711 2.39994
upperback -1.56188 0.0521649 3.41113
thorax -2.98813 0.0151876 2.16405
lowerneck -15.0368 -2.86427 -4.45118
upperneck 17.1568 -1.94015 -4.719
head 7.80274 -1.67765 -1.04535
rclavicle -7.60351e-015 5.56597e-015
rhumerus -10.6298 28.6318 -78.4337
rradius 73.3773
rwrist 26.3597
rhand -21.4954 13.5715
rfingers 7.12502
rthumb 4.89601 -16.3519
lclavicle -7.60351e-015 5.56597e-015
lhumerus 7.59728 -24.9833 79.114
lradius 90.6943
lwrist -42.3807
lhand -28.7969 24.2084
lfingers 7.12502
lthumb -2.15552 54.1772
rfemur -16.1095 6.95171 27.7241
rtibia 32.4144
rfoot -16.6993 -13.4272
rtoes 26.7924
lfemur -14.2845 -9.65674 -17.222
ltibia 29.9918
lfoot -15.3294 12.2898
ltoes 2.03287
692
root 0.0535107 18.2491 -4.32292 2.97809 5.24562 -3.63501
lowerback 2.39587 -0.175305 2.40031
upperback -1.62672 -0.0465894 3.39408
thorax -3.01841 -0.0343802 2.15136
lowerneck -14.8674 -2.84362 -4.37175
upperneck 17.1969 -1.92305 -4.80614
head 7.78425 -1.67207 -1.08273
rclavicle 1.53437e-014 2.38542e-015
rhumerus -11.1218 28.729 -78.7355
rradius 73.7562
rwrist 26.376
rhand -21.9872 13.7471
rfingers 7.12502
rthumb 4.42113 -16.1868
lclavicle 1.53437e-014 2.38542e-015
lhumerus 7.48605 -25.4745 78.9969
lradius 89.4714
lwrist -41.9207
lhand -27.9829 24.4585
lfingers 7.12502
lthumb -1.36944 54.4339
rfemur -16.0795 6.89568 27.6968
rtibia 32.3995
rfoot -16.8284 -13.4876
rtoes 27.498
lfemur -14.3012 -9.76499 -17.2267
ltibia 30.004
lfoot -15.3718 12.1221
ltoes 2.17794
693
root 0.053614 18.2483 -4.32029 2.9381 5.50261 -3.64793
lowerback 2.43462 -0.256778 2.46949
upperback -1.73001 -0.146032 3.40143
thorax -3.14537 -0.0858167 2.12653
lowerneck -14.6795 -2.81781 -4.32541
upperneck 17.2898 -1.8846 -4.91791
head 7.78066 -1.66207 -1.12111
rclavicle -8.02593e-015 1.66979e-014
rhumerus -11.762 28.8203 -79.099
rradius 74.22
rwrist 26.4132
rhand -22.2156 13.7968
rfingers 7.12502
rthumb 4.20062 -16.1415
lclavicle -8.02593e-015 1.66979e-014
lhumerus 7.37279 -25.9427 79.0217
lradius 88.0557
lwrist -41.9616
lhand -27.3096 24.8548
lfingers 7.12502
lthumb -0.719062 54.8333
rfemur -16.0227 6.74336 27.7341
rtibia 32.3894
rfoot -16.8139 -13.6594
rtoes 27.2789
lfemur -14.2871 -9.77875 -17.193
ltibia 30.0032
lfoot -15.421 11.843
ltoes 2.03285
694
root 0.0544469 18.2465 -4.32104 2.90807 5.66804 -3.64774
lowerback 2.50086 -0.33314 2.53114
upperback -1.809 -0.238034 3.42615
thorax -3.26308 -0.13321 2.12385
lowerneck -14.5682 -2.77602 -4.33574
upperneck 17.4125 -1.80696 -5.01518
head 7.80198 -1.63744 -1.14312
rclavicle -2.14501e-014 -3.97569e-015
rhumerus -12.2497 29.0398 -79.3665
rradius 74.6454
rwrist 26.3105
rhand -22.2586 13.8936
rfingers 7.12502
rthumb 4.15907 -16.0456
lclavicle -2.14501e-014 -3.97569e-015
lhumerus 7.08015 -26.156 79.1642
lradius 86.4473
lwrist -42.4352
lhand -26.0819 24.917
lfingers 7.12502
lthumb 0.466604 54.8962
rfemur -16.0039 6.68906 27.7462
rtibia 32.4056
rfoot -16.8564 -13.8032
rtoes 27.4132
lfemur -14.2986 -9.7477 -17.1801
ltibia 29.9851
lfoot -15.4168 11.6173
ltoes 1.93352
